<?xml version="1.0" encoding="UTF-8" standalone="no"?>
<svg
   xmlns:dc="http://purl.org/dc/elements/1.1/"
   xmlns:cc="http://creativecommons.org/ns#"
   xmlns:rdf="http://www.w3.org/1999/02/22-rdf-syntax-ns#"
   xmlns:svg="http://www.w3.org/2000/svg"
   xmlns="http://www.w3.org/2000/svg"
   viewBox="0 0 409.60001 409.60001"
   height="150px"
   width="150px"
   id="svg841"
   version="1.1">
  <metadata
     id="metadata847">
    <rdf:RDF>
      <cc:Work
         rdf:about="">
        <dc:format>image/svg+xml</dc:format>
        <dc:type
           rdf:resource="http://purl.org/dc/dcmitype/StillImage" />
        <dc:title></dc:title>
      </cc:Work>
    </rdf:RDF>
  </metadata>
  <defs
     id="defs845" />
  <path
     style="fill:#cfcfcf;stroke-width:0.32000002"
     d="m 140.9287,313.48607 -62.163447,-62.16405 -1.77264,-4.47594 c -2.60222,-6.57063 -4.20005,-11.90376 -3.71249,-12.39131 0.30445,-0.30445 14.41838,13.64157 65.336017,64.55875 l 64.94768,64.94708 7.28447,-7.23443 7.28447,-7.23446 2.4,-0.20192 c 1.32,-0.11104 4.02405,-0.44215 6.009,-0.73578 2.77799,-0.41091 3.69617,-0.44669 3.98754,-0.15533 0.29136,0.29136 -2.71215,3.47242 -13.04388,13.81498 -7.38232,7.39008 -13.64084,13.43648 -13.90784,13.43648 -0.26699,0 -28.45899,-27.97383 -62.64888,-62.16407 z m 54.99076,32.72976 -4.6133,-0.25507 -4.48724,-4.51878 c -3.23609,-3.25885 -4.39006,-4.61594 -4.13873,-4.86727 0.25133,-0.25132 1.58424,-0.196 4.78053,0.19847 6.73981,0.83174 21.50457,1.00336 28.59204,0.33232 49.66756,-4.7025 92.22668,-34.39241 113.78093,-79.37536 l 1.99334,-4.16 6.39693,-6.3611 c 3.97353,-3.95129 6.53888,-6.27337 6.77158,-6.12953 0.53037,0.32778 0.23575,1.45391 -1.94918,7.4504 -10.68803,29.33314 -29.75692,54.01599 -55.4736,71.80528 -20.34369,14.07258 -45.36722,23.13453 -70.08,25.37863 -6.70043,0.60845 -15.81289,0.82048 -21.5733,0.50201 z m -36.98671,-6.63657 c -1.86741,-0.45706 -11.68906,-4.23936 -16.04188,-6.17773 -39.59848,-17.63354 -69.948807,-52.58467 -81.827207,-94.23139 -4.4849,-15.72446 -6.46686,-32.24958 -5.6793,-47.35262 l 0.31666,-6.07262 4.49934,-4.46791 c 3.24481,-3.22216 4.5965,-4.37075 4.84783,-4.11942 0.25132,0.25133 0.19599,1.58424 -0.19847,4.78053 -0.83176,6.73981 -1.00338,21.50457 -0.33234,28.59204 4.70251,49.66756 34.39242,92.22668 79.375367,113.78093 l 4.16,1.99334 6.3611,6.39693 c 6.60166,6.63885 7.18793,7.53117 4.5189,6.87792 z m 80.93677,-11.32672 c -0.13152,-0.2128 26.06195,-26.64077 64.69636,-65.27552 l 64.91734,-64.91795 -7.23443,-7.28447 -7.23446,-7.28447 -0.20192,-2.4 c -0.11104,-1.32 -0.44215,-4.02405 -0.73578,-6.009 -0.41091,-2.77799 -0.44669,-3.69617 -0.15533,-3.98754 0.29136,-0.29136 3.47242,2.71215 13.81498,13.04388 7.39008,7.38232 13.43648,13.64084 13.43648,13.90784 0,0.26699 -27.97383,28.45899 -62.16407,62.64888 l -62.16405,62.16344 -4.46313,1.76624 c -4.22089,1.67033 -11.15361,3.98627 -11.9329,3.98627 -0.19695,0 -0.45753,-0.16093 -0.57909,-0.3576 z M 124.71561,259.94728 c -0.44886,-0.44887 -0.50286,-3.28572 -0.50286,-26.42104 0,-17.2541 0.11074,-26.12509 0.33126,-26.53714 0.30488,-0.56968 0.7131,-0.61896 5.12686,-0.61896 4.66827,0 4.80381,0.0191 5.1048,0.72 0.17006,0.396 1.25016,5.67918 2.40023,11.74041 1.15006,6.06123 2.14083,11.07023 2.20171,11.13111 0.13195,0.13195 -0.0214,0.89611 2.45502,-12.23152 1.09564,-5.808 2.13302,-10.74 2.30528,-10.96 0.22558,-0.2881 1.64733,-0.4 5.08195,-0.4 h 4.76873 l 0.31761,0.83535 c 0.38989,1.02551 0.27367,52.4241 -0.11944,52.81807 -0.4276,0.42855 -6.45846,0.53234 -7.22094,0.12427 -0.66899,-0.35803 -0.67307,-0.44862 -0.67307,-14.96229 0,-8.03114 -0.0933,-14.5088 -0.20726,-14.39481 -0.11399,0.114 -1.17643,6.69644 -2.36097,14.62764 -1.18454,7.93121 -2.25527,14.52194 -2.3794,14.64607 -0.30701,0.30701 -3.57733,0.2874 -3.88804,-0.0233 -0.13696,-0.13696 -1.21944,-6.73944 -2.40552,-14.67218 -1.18608,-7.93275 -2.23802,-14.5047 -2.33765,-14.60433 -0.0996,-0.0996 -0.18116,6.38978 -0.18116,14.42092 0,14.10914 -0.0209,14.61326 -0.61896,14.93334 -0.34043,0.18219 -1.98614,0.33126 -3.65714,0.33126 -2.33532,0 -3.15451,-0.11634 -3.54104,-0.50286 z m 49.31516,-4.69714 c -0.50482,-0.37098 -0.53828,-2.02537 -0.46116,-22.8 l 0.0831,-22.4 4.22383,-0.0892 c 3.77783,-0.0798 4.2552,-0.0291 4.52087,0.48 0.16336,0.31305 1.06607,4.63718 2.00601,9.60918 0.93994,4.972 1.78555,9.03967 1.87914,9.03927 0.0936,-3.2e-4 0.946,-4.1404 1.89427,-9.2 0.94826,-5.0596 1.86924,-9.38331 2.04662,-9.60824 0.23919,-0.30331 1.40582,-0.38598 4.51589,-0.32 l 4.19337,0.089 0.0832,22.4 c 0.0771,20.77463 0.0436,22.42902 -0.46116,22.8 -0.66348,0.48757 -5.00562,0.53831 -5.88302,0.0687 -0.59376,-0.31777 -0.6203,-0.80967 -0.65163,-12.08 -0.0213,-7.66351 -0.13479,-11.41494 -0.32635,-10.78874 -0.16152,0.528 -1.0064,5.7827 -1.87751,11.67711 -1.6928,11.45448 -1.71372,11.52289 -3.52348,11.52289 -1.83097,0 -1.83536,-0.0147 -3.6711,-12.27537 -0.94355,-6.30187 -1.79955,-11.54195 -1.90222,-11.64462 -0.10267,-0.10268 -0.18668,5.08825 -0.18668,11.53539 0,11.26177 -0.0243,11.73509 -0.61896,12.05334 -0.8774,0.46957 -5.21954,0.41883 -5.88302,-0.0687 z m 29.44,0 c -0.50482,-0.37098 -0.53828,-2.02537 -0.46116,-22.8 l 0.0831,-22.4 3.49409,-0.0914 c 2.57998,-0.0675 3.56237,0.0163 3.7551,0.32 0.14356,0.22626 0.26322,10.30109 0.26592,22.38852 0.004,19.55681 -0.0505,22.03252 -0.49796,22.48 -0.63957,0.63957 -5.79999,0.71952 -6.63913,0.10286 z m 11.52,0 c -0.50481,-0.37098 -0.53828,-2.02537 -0.46116,-22.8 l 0.0832,-22.4 3.49408,-0.0914 c 2.57998,-0.0675 3.56237,0.0163 3.7551,0.32 0.14356,0.22626 0.26322,8.87138 0.26592,19.21138 l 0.005,18.8 h 3.70103 c 2.03557,0 3.97957,0.14906 4.32,0.33125 0.54477,0.29156 0.61897,0.69295 0.61897,3.34875 0,2.65579 -0.0742,3.05719 -0.61897,3.34874 -0.9387,0.50237 -14.46933,0.44103 -15.16302,-0.0687 z m 17.92,0 c -0.50481,-0.37098 -0.53828,-2.02537 -0.46116,-22.8 l 0.0831,-22.4 3.49408,-0.0914 c 2.57998,-0.0675 3.56237,0.0163 3.7551,0.32 0.14356,0.22626 0.26322,8.87138 0.26592,19.21138 l 0.005,18.8 h 3.70103 c 2.03557,0 3.97957,0.14906 4.32,0.33125 0.54477,0.29156 0.61897,0.69295 0.61897,3.34875 0,2.65579 -0.0742,3.05719 -0.61897,3.34874 -0.93869,0.50237 -14.46933,0.44103 -15.16302,-0.0687 z m 16.82199,0.20287 c -0.22,-0.0969 -0.4,-0.60465 -0.4,-1.12831 0,-1.0265 6.29264,-42.94573 6.58616,-43.87456 0.15689,-0.49647 0.66077,-0.56 4.44116,-0.56 3.5165,0 4.29687,0.0851 4.45049,0.48545 0.28499,0.74267 6.60219,42.77679 6.60219,43.93042 0,0.8116 -0.15784,1.05155 -0.79728,1.21204 -1.34301,0.33707 -5.92256,0.0101 -6.20249,-0.44281 -0.139,-0.22491 -0.42849,-1.80756 -0.64332,-3.51701 -0.21482,-1.70945 -0.47104,-3.57609 -0.56936,-4.14809 l -0.17878,-1.04 h -2.64877 -2.64878 l -0.17877,1.04 c -0.0983,0.572 -0.35455,2.43864 -0.56937,4.14809 -0.21482,1.70945 -0.505,3.29345 -0.64484,3.52 -0.26085,0.42259 -5.77828,0.73598 -6.59824,0.37478 z m 12.08,-17.98236 c 0,-0.49472 -0.288,-2.96995 -0.64,-5.50051 -0.352,-2.53057 -0.64,-4.6698 -0.64,-4.75385 0,-0.084 -0.0713,-0.0815 -0.1584,0.006 -0.18272,0.18273 -1.4416,9.25701 -1.4416,10.39138 0,0.68373 0.1392,0.7569 1.44,0.7569 1.36514,0 1.44,-0.0468 1.44,-0.89949 z m 12.37801,17.77949 c -0.50481,-0.37098 -0.53828,-2.02537 -0.46116,-22.8 l 0.0831,-22.4 3.07168,-0.091 c 2.2059,-0.0653 3.16682,0.0248 3.40922,0.32 0.18564,0.22605 1.58143,4.94701 3.10176,10.49101 1.52033,5.544 2.86619,10.368 2.99079,10.72 0.1246,0.352 0.29855,-4.328 0.38655,-10.4 l 0.16,-11.04 h 3.36 3.36 l 0.0831,22.4 c 0.0771,20.77463 0.0436,22.42902 -0.46117,22.8 -0.56232,0.41323 -4.17252,0.54386 -5.46429,0.1977 -0.83499,-0.22375 -0.80016,-0.11887 -4.38528,-13.20583 -1.32109,-4.82246 -2.47633,-8.84246 -2.5672,-8.93333 -0.0909,-0.0909 -0.16521,4.74972 -0.16521,10.75686 0,10.47083 -0.0256,10.93576 -0.61897,11.25334 -0.8774,0.46957 -5.21954,0.41883 -5.88302,-0.0687 z M 162.13275,232.4566 c -2.96793,-1.06718 -3.44141,-2.64492 -3.30352,-11.00801 0.0931,-5.64699 0.16963,-6.39099 0.76083,-7.39737 0.98575,-1.67802 2.49654,-2.56108 4.38165,-2.56108 3.45901,0 5.04104,1.79195 5.04104,5.70993 0,2.41793 -0.15918,2.59512 -2.34103,2.6057 -1.66376,0.008 -2.13897,-0.49112 -2.13897,-2.24689 0,-1.19889 -0.11778,-1.58874 -0.48,-1.58874 -0.41032,0 -0.48,0.90962 -0.48,6.26666 0,4.87018 0.0891,6.23735 0.4,6.13509 0.23383,-0.0769 0.46647,-0.91885 0.56,-2.02667 l 0.16,-1.89508 h 2.08 2.08 v 2.77756 c 0,2.31621 -0.11108,2.92746 -0.66877,3.68 -1.22964,1.65924 -3.86695,2.3343 -6.05123,1.5489 z M 39.409223,211.9628 c -7.39006,-7.38232 -13.43647,-13.64057 -13.43647,-13.90722 0,-0.26666 27.972,-28.45954 62.16,-62.65085 l 62.159997,-62.166031 4.8,-1.88272 c 6.76517,-2.65351 11.58582,-4.08804 12.07931,-3.59455 0.2992,0.29921 -14.01049,14.77943 -64.56269,65.332091 l -64.947087,64.94768 7.23445,7.28447 7.23445,7.28447 0.20192,2.4 c 0.11105,1.32 0.44215,4.02405 0.73577,6.009 0.41094,2.77799 0.4467,3.69617 0.15534,3.98754 -0.29136,0.29136 -3.47243,-2.71215 -13.81499,-13.04388 z m 302.540307,6.78215 c -0.0956,-0.24904 0.0668,-2.37925 0.36073,-4.7338 0.81863,-6.55672 0.98451,-21.39979 0.31786,-28.44102 -4.7025,-49.66756 -34.39241,-92.226681 -79.37536,-113.780941 l -4.16,-1.99333 -6.3611,-6.39693 c -3.95129,-3.97355 -6.27337,-6.53886 -6.12953,-6.7716 0.32778,-0.53036 1.45391,-0.23574 7.4504,1.94919 29.33314,10.68804 54.01599,29.75693 71.80528,55.473611 13.4242,19.40635 22.31764,43.12688 25.07184,66.87128 0.83933,7.2359 1.17754,16.72508 0.8322,23.34767 l -0.31594,6.05894 -4.09658,4.12209 c -4.44419,4.47187 -5.12432,5.01281 -5.3998,4.29484 z M 136.32559,188.23588 c -0.28993,-0.077 -0.61197,-0.45631 -0.71563,-0.84288 -0.10365,-0.38658 -0.19044,-12.23134 -0.19284,-26.3217 -0.003,-19.99595 0.0834,-25.73877 0.39563,-26.16526 0.36381,-0.49698 1.23957,-0.5387 9.68,-0.46116 l 9.28,0.0853 v 4.32 4.32 l -5.2,0.0879 -5.2,0.0879 v 6.39207 6.39207 l 2.8,0.004 c 4.54771,0.007 4.24,-0.32933 4.24,4.63563 0,4.96495 0.30771,4.62853 -4.24,4.63563 l -2.8,0.004 v 11.18875 c 0,10.73447 -0.0251,11.20219 -0.61896,11.52 -0.59297,0.31734 -6.33348,0.40776 -7.4282,0.117 z m 22.02518,-1.14575 c -0.50482,-0.37097 -0.53828,-2.02536 -0.46116,-22.8 l 0.0831,-22.4 h 5.44 c 5.30574,0 5.48488,0.0221 7.25812,0.89283 3.35242,1.64629 5.10169,4.51557 5.72298,9.38724 0.61473,4.82035 -0.60977,10.65591 -2.6172,12.47261 -0.33215,0.30058 -0.60642,0.7762 -0.60951,1.05692 -0.003,0.28072 0.88187,5.105 1.96659,10.72062 2.33258,12.0758 2.5103,11.17592 -2.17487,11.01227 -1.61364,-0.0564 -3.04401,-0.21286 -3.17861,-0.34777 -0.1346,-0.1349 -0.9817,-4.30136 -1.88245,-9.25878 -0.98312,-5.41077 -1.79108,-9.06461 -2.02139,-9.14138 -0.29212,-0.0974 -0.38366,2.01072 -0.38366,8.83592 0,7.72225 -0.0696,9.03346 -0.50285,9.46667 -0.63957,0.63957 -5.79999,0.71952 -6.63913,0.10285 z m 9.15566,-26.485 c 1.12046,-0.88135 1.62015,-2.58459 1.59452,-5.435 -0.0314,-3.48811 -1.161,-5.76 -2.86398,-5.76 h -0.74422 v 5.92 c 0,5.56399 0.0359,5.92 0.59685,5.92 0.32826,0 0.96584,-0.29025 1.41683,-0.645 z m 11.18632,26.68788 c -0.22,-0.0969 -0.4,-0.60465 -0.4,-1.12831 0,-1.0265 6.29264,-42.94573 6.58617,-43.87457 0.15688,-0.49646 0.66077,-0.56 4.44116,-0.56 3.5165,0 4.29687,0.0851 4.45049,0.48546 0.28499,0.74267 6.60218,42.77679 6.60218,43.93041 0,0.81161 -0.15784,1.05156 -0.79727,1.21205 -1.34301,0.33707 -5.92256,0.0101 -6.20249,-0.44281 -0.139,-0.22491 -0.42849,-1.80757 -0.64332,-3.51702 -0.21482,-1.70945 -0.47104,-3.57609 -0.56937,-4.14809 l -0.17877,-1.04 h -2.64878 -2.64877 l -0.17877,1.04 c -0.0983,0.572 -0.35455,2.43864 -0.56937,4.14809 -0.21483,1.70945 -0.50501,3.29345 -0.64484,3.52 -0.26085,0.4226 -5.77828,0.73599 -6.59825,0.37479 z m 12.08,-17.98236 c 0,-0.49472 -0.288,-2.96995 -0.64,-5.50052 -0.352,-2.53056 -0.64,-4.66979 -0.64,-4.75384 0,-0.0841 -0.0713,-0.0815 -0.15839,0.006 -0.18273,0.18273 -1.44161,9.257 -1.44161,10.39138 0,0.68373 0.1392,0.75689 1.44,0.75689 1.36514,0 1.44,-0.0468 1.44,-0.89948 z m 12.37802,17.77948 c -0.50482,-0.37097 -0.53828,-2.02536 -0.46116,-22.8 l 0.0831,-22.4 3.07169,-0.091 c 2.2059,-0.0653 3.16682,0.0248 3.40921,0.32 0.18565,0.22605 1.58144,4.947 3.10177,10.491 1.52033,5.544 2.86618,10.368 2.99078,10.72 0.12461,0.352 0.29856,-4.328 0.38656,-10.4 l 0.16,-11.04 h 3.36 3.36 l 0.0831,22.4 c 0.0771,20.77464 0.0437,22.42903 -0.46116,22.8 -0.56232,0.41324 -4.17252,0.54386 -5.4643,0.19771 -0.83498,-0.22375 -0.80015,-0.11887 -4.38527,-13.20583 -1.32109,-4.82246 -2.47633,-8.84246 -2.5672,-8.93333 -0.0909,-0.0909 -0.16521,4.74972 -0.16521,10.75686 0,10.47083 -0.0256,10.93576 -0.61897,11.25334 -0.8774,0.46957 -5.21954,0.41883 -5.88302,-0.0687 z m 24,0 c -0.50481,-0.37097 -0.53828,-2.02536 -0.46116,-22.8 l 0.0831,-22.4 3.6,-0.0905 c 1.98,-0.0498 3.62845,-0.0498 3.66322,0 0.0348,0.0498 0.14277,3.03821 0.24,6.64097 l 0.17678,6.55049 2.40035,-6.55049 2.40035,-6.55049 3.44551,-0.0909 c 2.68881,-0.0709 3.48253,0.006 3.61407,0.34835 0.0927,0.24159 -1.15166,3.66545 -2.76526,7.60859 l -2.93382,7.16935 3.12806,13.7623 c 1.72043,7.56926 3.23589,14.23428 3.36769,14.81114 0.39837,1.74357 -0.22621,2.06909 -3.72282,1.94027 -1.62905,-0.06 -3.06534,-0.2128 -3.19176,-0.33951 -0.12641,-0.12672 -1.14875,-4.15872 -2.27186,-8.96 -2.59284,-11.08437 -2.32117,-10.29804 -3.016,-8.72961 -0.49039,1.10697 -0.57026,2.34758 -0.59078,9.17715 -0.0202,6.73107 -0.098,7.97139 -0.52659,8.4 -0.63957,0.63957 -5.79999,0.71952 -6.63913,0.10285 z m 22.72,0 c -0.50481,-0.37097 -0.53828,-2.02536 -0.46116,-22.8 l 0.0831,-22.4 3.49408,-0.0914 c 2.57998,-0.0675 3.56237,0.0162 3.7551,0.32 0.14356,0.22625 0.26322,10.30109 0.26592,22.38852 0.004,19.5568 -0.0505,22.03252 -0.49796,22.48 -0.63957,0.63957 -5.79999,0.71952 -6.63913,0.10285 z m 11.33898,-0.0354 c -0.26265,-0.31647 -0.33892,-6.54516 -0.27918,-22.8 l 0.0822,-22.36458 h 7.84 7.84 v 3.68 3.68 l -4.08,0.0896 -4.08,0.0896 v 5.27045 5.27043 h 2.53714 c 3.42906,0 3.54286,0.13351 3.54286,4.15669 0,1.73303 -0.0874,3.37875 -0.19424,3.65714 -0.15697,0.40906 -0.74023,0.50617 -3.04,0.50617 h -2.84576 v 5.6 5.6 h 3.54103 c 1.94757,0 3.81957,0.14907 4.16,0.33126 0.55024,0.29448 0.61897,0.69598 0.61897,3.616 0,2.12814 -0.13522,3.41996 -0.384,3.66874 -0.58887,0.58887 -14.76727,0.54109 -15.25901,-0.0514 z m 7.24747,-90.039911 -64.87533,-64.87534 -7.28457,7.234548 -7.28457,7.23455 -2.4,0.201917 c -1.32,0.111053 -4.02405,0.442154 -6.009,0.735776 -2.77799,0.410934 -3.69617,0.446701 -3.98754,0.155338 -0.29136,-0.291364 2.71215,-3.472429 13.04388,-13.81499 7.38232,-7.390061 13.64084,-13.43647 13.90784,-13.43647 0.26699,0 28.45899,27.973828 62.64888,62.164061 l 62.16344,62.164061 1.76624,4.46313 c 0.97139,2.45473 2.27705,6.09954 2.9014,8.09959 1.04452,3.346 1.18599,4.54916 0.53482,4.54916 -0.1376,0 -29.44405,-29.1939 -65.12549,-64.875331 z M 61.977323,154.85752 c -0.43468,-0.70333 2.79856,-9.752 6.27016,-17.54795 17.60565,-39.535841 52.585617,-69.897851 94.205267,-81.768529 15.72446,-4.484903 32.24958,-6.466865 47.35262,-5.679303 l 6.07262,0.316662 4.46791,4.499335 c 3.22216,3.244814 4.37075,4.596504 4.11942,4.847824 -0.25133,0.25133 -1.58424,0.19599 -4.78053,-0.19846 -6.73981,-0.83176 -21.50457,-1.00338 -28.59204,-0.33234 -31.134,2.94776 -58.97353,15.29681 -82.18101,36.45383 C 96.313753,106.93351 84.768223,122.61015 77.418733,138.21013 l -1.88448,4 -6.45782,6.48 c -3.5518,3.564 -6.55864,6.48 -6.68187,6.48 -0.12322,0 -0.31098,-0.14067 -0.41724,-0.31261 z"
     id="path5779" />
  <path
     style="fill:#9d9d9d;stroke-width:0.32000002"
     d="m 140.96757,313.17014 -62.122927,-62.16 -1.35841,-3.52 c -1.43487,-3.7181 -4.15348,-11.78321 -4.15348,-12.32182 0,-0.175 0.17987,-0.31818 0.39971,-0.31818 0.21983,0 29.523297,29.12333 65.118807,64.71852 l 64.71911,64.7185 7.1765,-7.17117 7.17649,-7.17116 4.42469,-0.56 c 2.43358,-0.308 5.1807,-0.66285 6.1047,-0.78858 1.32721,-0.18058 1.68,-0.13562 1.68,0.21411 0,0.60224 -25.95939,26.51978 -26.56258,26.51978 -0.26382,0 -28.435,-27.972 -62.60261,-62.16 z m 54.01698,32.74243 -3.6282,-0.24794 -4.1318,-4.12262 c -2.27249,-2.26746 -4.1318,-4.3047 -4.1318,-4.52726 0,-0.50525 0.25024,-0.50061 4.96,0.0918 5.57214,0.70093 19.0523,0.957 25.44147,0.48327 50.31161,-3.73015 94.18797,-33.49951 116.05255,-78.73968 l 2.39719,-4.96 6.13133,-6.16 c 3.37222,-3.388 6.31545,-6.16 6.54048,-6.16 0.54281,0 0.34992,0.75194 -1.59255,6.20784 -11.77619,33.07655 -35.18733,61.07841 -65.85046,78.76317 -18.0129,10.3888 -39.19208,17.04902 -60.48,19.0192 -4.95835,0.45891 -17.2332,0.65804 -21.70821,0.35222 z m -39.89321,-7.98061 c -12.98659,-4.51827 -23.24836,-9.69561 -35.03859,-17.67785 -28.113357,-19.0334 -49.159247,-48.09073 -58.706157,-81.05356 -4.47482,-15.45032 -6.63012,-33.86657 -5.67344,-48.4774 l 0.3226,-4.92699 4.10389,-4.11301 c 2.25713,-2.26216 4.28596,-4.11302 4.50849,-4.11302 0.50527,0 0.50063,0.25024 -0.0918,4.96 -0.70091,5.57214 -0.95697,19.0523 -0.48327,25.44147 3.73015,50.31161 33.49953,94.18797 78.739687,116.05255 l 4.96,2.39719 6.16,6.13133 c 5.4806,5.45507 6.74528,6.93747 5.91859,6.93747 -0.13278,0 -2.25678,-0.70119 -4.72,-1.55818 z m 85.28142,-10.04153 c 0,-0.21984 29.12333,-29.5233 64.71852,-65.11881 l 64.7185,-64.71911 -7.17117,-7.1765 -7.17116,-7.17649 -0.56,-4.42469 c -0.308,-2.43358 -0.66285,-5.1807 -0.78858,-6.1047 -0.18058,-1.32721 -0.13562,-1.68 0.21411,-1.68 0.60224,0 26.51978,25.95939 26.51978,26.56258 0,0.26382 -27.972,28.435 -62.16,62.60261 l -62.16,62.12291 -3.52,1.35844 c -3.7181,1.43484 -11.78321,4.15347 -12.32182,4.15347 -0.175,0 -0.31818,-0.17987 -0.31818,-0.39971 z M 124.91675,259.74614 c -0.29232,-0.29233 -0.384,-6.55063 -0.384,-26.21383 0,-14.20641 0.0874,-26.05761 0.19424,-26.336 0.16456,-0.42884 0.89189,-0.50617 4.76082,-0.50617 3.26389,0 4.66074,0.1141 4.89665,0.4 0.18154,0.22 1.28206,5.44 2.44561,11.6 1.16354,6.16 2.24033,11.488 2.39285,11.84 0.35626,0.82217 0.18451,1.56788 2.72797,-11.84462 1.13525,-5.98654 2.16,-11.13454 2.27721,-11.44 0.18901,-0.49253 0.74861,-0.55538 4.94465,-0.55538 4.01934,0 4.76077,0.0762 4.92577,0.50617 0.10683,0.27839 0.19423,12.12959 0.19423,26.336 0,19.6632 -0.0917,25.9215 -0.384,26.21383 -0.40196,0.40196 -5.84073,0.55396 -6.78982,0.18976 -0.45201,-0.17345 -0.50618,-1.86664 -0.50618,-15.82111 0,-8.78975 -0.12465,-15.70392 -0.28491,-15.80297 -0.35084,-0.21683 -0.20122,-1.10054 -2.7865,16.45832 -1.17906,8.008 -2.28397,14.74 -2.45535,14.96 -0.17138,0.22 -0.92434,0.4 -1.67324,0.4 -0.7489,0 -1.50659,-0.18 -1.68375,-0.4 -0.24592,-0.30539 -4.90237,-30.22387 -4.8808,-31.36 0.002,-0.132 -0.13945,-0.24 -0.31545,-0.24 -0.20901,0 -0.32,5.48192 -0.32,15.80576 0,14.11759 -0.0541,15.82651 -0.50617,16 -0.9491,0.3642 -6.38787,0.2122 -6.78983,-0.18976 z m 49.2938,-4.68115 c -0.31794,-0.20185 -0.38499,-4.91107 -0.32,-22.4751 l 0.0822,-22.21975 4.04221,-0.0893 c 3.36634,-0.0744 4.0732,-0.008 4.22762,0.39392 0.10199,0.26576 0.99189,4.69483 1.97756,9.84237 0.98568,5.14755 1.85524,9.42228 1.93237,9.49941 0.0771,0.0771 0.20043,0.08 0.274,0.006 0.0736,-0.0736 0.97441,-4.52557 2.00187,-9.89333 l 1.86812,-9.75959 h 4.15813 4.15812 l 0.0822,22.21975 c 0.065,17.56403 -0.002,22.27325 -0.32,22.4751 -0.4712,0.29915 -4.75714,0.35445 -5.49603,0.0709 -0.44952,-0.1725 -0.50672,-1.59624 -0.51107,-12.72 -0.003,-7.53433 -0.12852,-12.71704 -0.31511,-13.00576 -0.17061,-0.264 -0.3124,-0.33168 -0.3151,-0.15039 -0.003,0.18129 -0.85417,5.99569 -1.89217,12.92089 -1.27648,8.51624 -2.02732,12.68002 -2.32,12.86549 -0.56173,0.35595 -1.91044,0.35164 -2.47828,-0.008 -0.30917,-0.19578 -1.01657,-4.08779 -2.31105,-12.7151 -1.02602,-6.83813 -1.86953,-12.62146 -1.87445,-12.85185 -0.005,-0.23038 -0.15295,-0.32988 -0.32895,-0.2211 -0.20466,0.12649 -0.32,4.79191 -0.32,12.94465 0,11.32828 -0.0563,12.76849 -0.50617,12.94111 -0.73889,0.28354 -5.02483,0.22824 -5.49603,-0.0709 z m 29.44,0 c -0.31794,-0.20185 -0.38499,-4.91107 -0.32,-22.4751 l 0.0822,-22.21975 h 3.36001 3.36 l 0.0822,22.04453 c 0.0598,16.0182 -0.0166,22.16358 -0.27918,22.48 -0.40201,0.4844 -5.56995,0.62444 -6.28524,0.17032 z m 11.52,0 c -0.31794,-0.20185 -0.38499,-4.91107 -0.32,-22.4751 l 0.0822,-22.21975 h 3.36 3.36 l 0.0825,19.12 0.0825,19.12 h 3.81131 c 2.09622,0 4.03909,0.0874 4.31748,0.19423 0.41128,0.15782 0.50618,0.75132 0.50618,3.16577 0,2.41444 -0.0949,3.00794 -0.50618,3.16576 -0.75593,0.29008 -14.30989,0.22503 -14.77603,-0.0709 z m 17.92,0 c -0.31794,-0.20185 -0.38498,-4.91107 -0.32,-22.4751 l 0.0822,-22.21975 h 3.36 3.36 l 0.0825,19.12 0.0825,19.12 h 3.81131 c 2.09622,0 4.03909,0.0874 4.31748,0.19423 0.41128,0.15782 0.50618,0.75132 0.50618,3.16577 0,2.41444 -0.0949,3.00794 -0.50618,3.16576 -0.75593,0.29008 -14.30989,0.22503 -14.77603,-0.0709 z m 16.64442,-0.21657 c -0.23803,-0.42534 5.96085,-42.92656 6.44489,-44.18794 0.26335,-0.6863 8.13463,-0.65452 8.39881,0.0339 0.1022,0.26633 1.66367,10.23833 3.46994,22.16 2.24761,14.83462 3.18339,21.80199 2.96495,22.07575 -0.21164,0.26523 -1.26305,0.4 -3.1208,0.4 -1.85695,0 -2.90977,-0.13488 -3.12232,-0.4 -0.17638,-0.22 -0.56129,-2.18952 -0.85535,-4.37671 -0.29406,-2.18719 -0.60789,-4.09519 -0.69738,-4.24 -0.20665,-0.33437 -5.47468,-0.34825 -5.68065,-0.015 -0.0844,0.13658 -0.39662,2.04458 -0.69379,4.24 -0.29717,2.19542 -0.68624,4.17168 -0.8646,4.39168 -0.50141,0.6185 -5.89132,0.54795 -6.2437,-0.0817 z m 12.39779,-17.05216 c 0,-0.81493 -1.03366,-8.97209 -1.46219,-11.53882 -0.0985,-0.58999 -0.24495,-1.00683 -0.32546,-0.92632 -0.1751,0.1751 -1.73235,11.49546 -1.73235,12.59326 0,0.71486 0.11698,0.76576 1.76,0.76576 1.71329,0 1.76,-0.0237 1.76,-0.89388 z m 12.23779,17.26873 c -0.31793,-0.20185 -0.38498,-4.91107 -0.32,-22.4751 l 0.0822,-22.21975 2.8508,-0.0932 c 1.56794,-0.0513 2.96353,0.0207 3.10131,0.16 0.13777,0.13926 1.63407,5.28253 3.3251,11.42949 1.69103,6.14696 3.17544,11.33096 3.29869,11.52 0.12326,0.18904 0.2961,-4.91229 0.3841,-11.33629 l 0.16,-11.68 h 3.04 3.04 l 0.0822,22.21975 c 0.065,17.56403 -0.002,22.27325 -0.32,22.4751 -0.71473,0.45376 -5.24479,0.31221 -5.65043,-0.17656 -0.20162,-0.24293 -1.74367,-5.46293 -3.42679,-11.6 -1.68312,-6.13706 -3.19179,-11.29509 -3.35261,-11.46229 -0.17673,-0.18375 -0.29238,4.32798 -0.29238,11.40576 0,10.38258 -0.0574,11.73178 -0.50618,11.904 -0.73889,0.28354 -5.02483,0.22824 -5.49603,-0.0709 z m -112.5578,-23.03923 c -2.33871,-1.11136 -2.54546,-1.841 -2.66297,-9.39755 -0.0943,-6.06198 -0.0487,-6.74449 0.53823,-8.07146 0.82668,-1.86885 2.22267,-2.74541 4.36474,-2.7407 0.88,0.002 1.95568,0.1835 2.3904,0.40346 1.20891,0.61172 2.15027,2.26579 2.3924,4.20373 0.29475,2.35912 -0.10401,3.0669 -1.72788,3.0669 -1.95866,0 -2.25431,-0.22427 -2.25982,-1.71424 -0.006,-1.58384 -0.3842,-2.29052 -1.0828,-2.02244 -0.44546,0.17094 -0.5123,1.00955 -0.5123,6.42775 0,3.98326 0.1205,6.30563 0.33402,6.43759 0.71157,0.43977 1.26598,-0.56214 1.26598,-2.28785 v -1.72081 h 1.89844 c 1.64717,0 1.92665,0.0889 2.1116,0.6716 0.23667,0.7457 -0.0289,3.09097 -0.53028,4.68301 -0.69198,2.19721 -4.01956,3.24912 -6.51976,2.06101 z M 39.331293,211.56869 c -7.1712,-7.17279 -13.03854,-13.2573 -13.03854,-13.52113 0,-0.26382 27.972,-28.435 62.16,-62.60261 l 62.159997,-62.122931 3.52,-1.35842 c 3.7181,-1.43486 11.78321,-4.15347 12.32182,-4.15347 0.175,0 0.31818,0.17987 0.31818,0.3997 0,0.21984 -29.12333,29.52331 -64.71852,65.118821 l -64.718517,64.71911 7.17118,7.1765 7.17118,7.17649 0.56,4.42469 c 0.308,2.43358 0.66285,5.1807 0.78857,6.1047 0.18057,1.32721 0.1356,1.68 -0.21412,1.68 -0.24348,0 -6.31004,-5.86865 -13.48123,-13.04145 z m 302.808157,6.40145 c 0.004,-0.308 0.22406,-2.288 0.48972,-4.4 0.70093,-5.57214 0.957,-19.0523 0.48327,-25.44147 -3.73015,-50.31161 -33.49951,-94.187971 -78.73968,-116.052561 l -4.96,-2.39717 -6.16,-6.13133 c -3.388,-3.37223 -6.16,-6.31546 -6.16,-6.5405 0,-0.5428 0.75194,-0.3499 6.20784,1.59255 33.07655,11.77619 61.07841,35.18734 78.76317,65.850471 10.39027,18.01544 17.11964,39.4256 19.00931,60.48 0.5607,6.24739 0.73721,15.28592 0.39929,20.44699 l -0.32262,4.92699 -4.10387,4.11301 c -2.25715,2.26216 -4.28595,4.11302 -4.50851,4.11302 -0.22253,0 -0.4016,-0.252 -0.39792,-0.56 z m -206.0227,-30.22401 c -0.29232,-0.29232 -0.384,-6.55062 -0.384,-26.21382 0,-14.20641 0.0874,-26.05761 0.19424,-26.336 0.1708,-0.4451 1.28918,-0.50618 9.26874,-0.50618 8.64419,0 9.09021,0.0293 9.40577,0.61897 0.38319,0.71599 0.44294,6.70981 0.0727,7.29257 -0.17507,0.27556 -1.76134,0.41774 -5.3551,0.48 l -5.10635,0.0885 -0.0865,6.64 -0.0865,6.64 h 3.35523 c 4.06624,0 4.01775,-0.0521 4.01775,4.32 0,4.37122 0.0476,4.32 -4.01125,4.32 h -3.34873 v 11.32577 c 0,10.03242 -0.0578,11.34794 -0.50617,11.52 -0.95889,0.36796 -7.02709,0.21297 -7.42983,-0.18977 z m 22.4138,-0.84114 c -0.31794,-0.20185 -0.38499,-4.91107 -0.32,-22.47511 l 0.0822,-22.21975 4.60691,-0.0891 c 5.3671,-0.10377 7.13328,0.27229 9.39712,2.00086 2.79765,2.13616 4.38631,7.10764 3.95051,12.36251 -0.31477,3.7954 -1.11479,5.9858 -3.20002,8.76145 -0.17665,0.23514 0.4866,4.37412 1.73968,10.85637 1.7144,8.86875 1.95462,10.52098 1.56548,10.76722 -0.71876,0.45481 -5.92217,0.37288 -6.30888,-0.0993 -0.18017,-0.22 -0.99861,-4.144 -1.81876,-8.72 -1.84322,-10.28411 -1.71183,-9.76 -2.44673,-9.76 -0.57948,0 -0.60531,0.38634 -0.60531,9.056 0,6.61689 -0.10342,9.15943 -0.384,9.44 -0.4347,0.43471 -5.60601,0.53292 -6.2582,0.11886 z m 9.16829,-26.15543 c 1.21671,-1.02379 1.62985,-2.47128 1.63213,-5.7184 0.003,-3.80471 -1.26784,-5.94103 -3.53327,-5.94103 -0.59856,0 -0.62495,0.26345 -0.62495,6.24 v 6.24 h 0.77545 c 0.4265,0 1.21429,-0.36925 1.75064,-0.82057 z m 10.99613,25.93886 c -0.23803,-0.42534 5.96085,-42.92656 6.44489,-44.18794 0.26335,-0.6863 8.13463,-0.65452 8.39881,0.0339 0.1022,0.26633 1.66367,10.23833 3.46994,22.16 2.24761,14.83462 3.18338,21.80199 2.96495,22.07574 -0.21164,0.26524 -1.26305,0.4 -3.12081,0.4 -1.85694,0 -2.90976,-0.13487 -3.12232,-0.4 -0.17637,-0.22 -0.56128,-2.18952 -0.85534,-4.37671 -0.29406,-2.18718 -0.60789,-4.09518 -0.69738,-4.24 -0.20665,-0.33436 -5.47468,-0.34824 -5.68065,-0.015 -0.0844,0.13657 -0.39662,2.04457 -0.69379,4.24 -0.29717,2.19542 -0.68624,4.17168 -0.8646,4.39168 -0.50141,0.61849 -5.89132,0.54795 -6.2437,-0.0817 z m 12.39778,-17.05216 c 0,-0.81493 -1.03366,-8.97209 -1.46218,-11.53882 -0.0985,-0.58999 -0.24495,-1.00683 -0.32546,-0.92632 -0.1751,0.1751 -1.73236,11.49546 -1.73236,12.59325 0,0.71487 0.11699,0.76576 1.76,0.76576 1.7133,0 1.76,-0.0237 1.76,-0.89387 z m 12.2378,17.26873 c -0.31794,-0.20185 -0.38499,-4.91107 -0.32,-22.47511 l 0.0822,-22.21975 2.85081,-0.0932 c 1.56794,-0.0513 2.96352,0.0207 3.1013,0.16 0.13778,0.13926 1.63408,5.28253 3.32511,11.4295 1.69103,6.14696 3.17544,11.33096 3.29869,11.52 0.12325,0.18904 0.2961,-4.9123 0.3841,-11.3363 l 0.16,-11.68 h 3.04 3.04 l 0.0822,22.21975 c 0.065,17.56404 -0.002,22.27326 -0.32,22.47511 -0.71473,0.45376 -5.24478,0.31221 -5.65042,-0.17656 -0.20162,-0.24293 -1.74368,-5.46293 -3.42679,-11.6 -1.68312,-6.13706 -3.19179,-11.2951 -3.35261,-11.4623 -0.17673,-0.18374 -0.29238,4.32799 -0.29238,11.40577 0,10.38257 -0.0574,11.73178 -0.50618,11.904 -0.73889,0.28354 -5.02483,0.22824 -5.49603,-0.0709 z m 24,0 c -0.31794,-0.20185 -0.38498,-4.91107 -0.32,-22.47511 l 0.0822,-22.21975 h 3.36 3.36 l 0.16,7.04 c 0.12601,5.54444 0.23583,6.87005 0.51698,6.24 0.19635,-0.44 1.33481,-3.464 2.52992,-6.72 1.19511,-3.256 2.31209,-6.1 2.48219,-6.32 0.37142,-0.48038 6.1704,-0.56623 6.46123,-0.0956 0.10346,0.16739 -1.12319,3.50351 -2.72588,7.4136 l -2.91397,7.10925 3.35522,14.7464 c 2.37677,10.44604 3.2591,14.86305 3.02559,15.1464 -0.21793,0.26445 -1.27912,0.4 -3.13128,0.4 -1.85717,0 -2.90961,-0.13484 -3.12191,-0.4 -0.17615,-0.22 -1.28157,-4.504 -2.45649,-9.52 -1.17492,-5.016 -2.25041,-9.23478 -2.38998,-9.37507 -0.13957,-0.14029 -0.56379,0.49091 -0.9427,1.40267 -0.6405,1.54122 -0.68892,2.20135 -0.68892,9.39108 0,5.58814 -0.10652,7.83984 -0.384,8.11732 -0.43471,0.43471 -5.60601,0.53292 -6.25821,0.11886 z m 22.72,0 c -0.31793,-0.20185 -0.38498,-4.91107 -0.32,-22.47511 l 0.0822,-22.21975 h 3.36 3.36 l 0.0822,22.04454 c 0.0598,16.0182 -0.0166,22.16358 -0.27918,22.48 -0.40201,0.4844 -5.56995,0.62443 -6.28524,0.17032 z m 11.52221,0.0563 c -0.31458,-0.12934 -0.4,-4.90592 -0.4,-22.36653 0,-21.62304 0.0161,-22.21072 0.61896,-22.53334 0.66457,-0.35567 12.76885,-0.46509 14.03146,-0.12684 0.71,0.19021 0.72789,0.29071 0.64,3.59563 l -0.0904,3.39995 -4,0.16 -4,0.16 -0.0876,5.52 -0.0876,5.52 h 2.68838 c 1.91027,0 2.79568,0.1293 3.05912,0.44672 0.24263,0.29236 0.3391,1.59162 0.27918,3.76 l -0.0916,3.31328 -2.88,0.16 -2.88,0.16 -0.0872,5.84 -0.0872,5.84 3.76722,0.005 c 2.07197,0.003 3.95252,0.12247 4.17901,0.26617 0.30282,0.19214 0.3875,1.14345 0.32,3.5951 l -0.0918,3.33383 -7.2,0.0578 c -3.96,0.0318 -7.38,-0.0162 -7.6,-0.10667 z m 6.72118,-90.429751 -64.71862,-64.718613 -7.17659,7.171274 -7.17659,7.171273 -4.42469,0.560001 c -2.43358,0.308003 -5.1807,0.662857 -6.1047,0.788569 -1.32721,0.18057 -1.68,0.135607 -1.68,-0.214121 0,-0.602218 25.95939,-26.519764 26.56258,-26.519764 0.26382,0 28.435,27.972 62.60261,62.160001 l 62.12291,62.159971 1.35844,3.52 c 1.43484,3.7181 4.15347,11.78321 4.15347,12.32182 0,0.175 -0.18003,0.31818 -0.4001,0.31818 -0.22006,0 -29.52348,-29.12337 -65.11872,-64.718621 z M 62.329643,153.65013 c 0.37874,-1.59401 3.34895,-9.71156 4.81812,-13.16784 3.8333,-9.01797 7.93298,-16.54356 13.70203,-25.15216 19.228507,-28.692851 48.230467,-49.849421 81.572547,-59.506161 15.45032,-4.47482 33.86657,-6.630122 48.4774,-5.673444 l 4.92699,0.322605 4.11301,4.103882 c 2.26216,2.257137 4.11302,4.285957 4.11302,4.508497 0,0.50527 -0.25024,0.50063 -4.96,-0.0918 -5.57214,-0.70091 -19.0523,-0.95697 -25.44147,-0.48327 -50.31161,3.73015 -94.187967,33.49952 -116.052547,78.739691 l -2.39717,4.96 -6.13133,6.16 c -3.37223,3.388 -6.31546,6.16 -6.54051,6.16 -0.28372,0 -0.34507,-0.26979 -0.20009,-0.88 z"
     id="path5777" />
  <path
     style="fill:#5e5e5e;stroke-width:0.32000002"
     d="m 141.13216,313.01014 -61.958347,-62 -1.03528,-2.54124 c -1.60521,-3.9402 -4.47687,-12.73429 -4.26843,-13.07155 0.10278,-0.16631 29.220067,28.73053 64.705067,64.2152 35.485,35.48466 64.73527,64.51759 65.00061,64.51759 0.26534,0 3.63145,-3.15146 7.48026,-7.00327 l 6.99783,-7.00323 1.95944,-0.20886 c 1.0777,-0.11488 3.65226,-0.44259 5.72127,-0.72826 2.06899,-0.28569 3.86266,-0.41856 3.98592,-0.29529 0.30413,0.30412 -25.5388,26.11891 -26.14739,26.11891 -0.26544,0 -28.36387,-27.9 -62.44095,-62 z m 53.07386,32.58099 -2.80674,-0.1976 -4.05915,-4.05914 c -2.23253,-2.23254 -3.96022,-4.15808 -3.83931,-4.27897 0.1209,-0.1209 1.69855,-0.0492 3.50588,0.15939 32.91294,3.79827 65.35614,-3.76822 92.88606,-21.66317 16.63101,-10.81047 30.37103,-24.55049 41.1815,-41.1815 3.57479,-5.49955 5.23879,-8.45118 8.46381,-15.01318 l 2.68675,-5.46682 5.97315,-5.98232 c 3.28522,-3.29027 6.08461,-5.91341 6.22087,-5.8292 0.13625,0.0842 -0.48346,2.27225 -1.37715,4.86231 -8.84884,25.64514 -25.34801,48.99711 -46.82893,66.2789 -26.43051,21.26381 -59.75014,32.89447 -93.44001,32.61645 -3.168,-0.0262 -7.02303,-0.13648 -8.56673,-0.24515 z m -39.75327,-8.15549 c -25.6241,-8.90637 -48.8079,-25.31429 -66.049687,-46.7455 -21.13197,-26.26663 -32.74356,-59.3276 -32.64916,-92.96001 0.008,-2.904 0.12605,-6.76661 0.26199,-8.58358 l 0.24717,-3.30359 4.0423,-4.04229 c 2.22326,-2.22327 4.14122,-3.94338 4.26212,-3.82247 0.1209,0.1209 0.0492,1.69855 -0.1594,3.50588 -3.79827,32.91294 3.76824,65.35614 21.66318,92.88606 5.61765,8.64229 11.09622,15.39941 18.439147,22.74234 11.45914,11.45914 23.31094,19.87171 38.2697,27.16438 l 4.96735,2.42169 6.02849,6.03476 c 3.31567,3.3191 5.90437,6.11033 5.75265,6.20272 -0.15171,0.0924 -2.43585,-0.58279 -5.07585,-1.50039 z m 86.42573,-9.74387 c -0.0815,-0.13187 28.85937,-29.24706 64.31305,-64.7004 35.45368,-35.45335 64.46123,-64.678 64.46123,-64.94366 0,-0.26567 -3.15146,-3.63205 -7.00327,-7.48086 l -7.00323,-6.99783 -0.20886,-1.95944 c -0.11488,-1.0777 -0.44259,-3.65226 -0.72826,-5.72127 -0.28569,-2.06899 -0.41856,-3.86266 -0.29529,-3.98592 0.30412,-0.30413 26.11891,25.5388 26.11891,26.14739 0,0.26544 -27.9,28.36387 -62,62.44095 l -62,61.95835 -2.4,0.97405 c -5.30456,2.15293 -13.02514,4.63939 -13.25428,4.26864 z M 125.00004,259.41014 c -0.0839,-0.22 -0.11542,-12.064 -0.07,-26.32 l 0.0827,-25.92 4.45462,-0.0894 c 2.45004,-0.0492 4.57893,0.0349 4.73088,0.18688 0.15194,0.15195 1.27481,5.52017 2.49526,11.92939 1.22044,6.40921 2.31186,12.01312 2.42537,12.45312 0.19461,0.75436 0.22172,0.76349 0.47515,0.16 0.14782,-0.352 1.22013,-5.752 2.38291,-12 1.16278,-6.248 2.24824,-11.68797 2.41213,-12.08881 0.29299,-0.71658 0.37451,-0.72731 4.86084,-0.64 l 4.56284,0.0888 v 26.24 26.24 l -3.33382,0.0918 c -2.45166,0.0675 -3.40297,-0.0172 -3.5951,-0.32 -0.1437,-0.22649 -0.27485,-8.04379 -0.29144,-17.37179 -0.0187,-10.5129 -0.14007,-16.6559 -0.31927,-16.16 -0.15901,0.44 -1.37196,8.072 -2.69543,16.96 -1.32348,8.888 -2.47349,16.34 -2.55559,16.56 -0.17084,0.45783 -2.91314,0.55926 -3.18596,0.11784 -0.0959,-0.15519 -1.25568,-7.53519 -2.57727,-16.4 -1.32158,-8.86481 -2.50213,-16.54984 -2.62345,-17.07784 l -0.22057,-0.96 -0.24261,1.28 c -0.13343,0.704 -0.2509,8.516 -0.26105,17.36 l -0.0184,16.08 h -3.37004 c -2.4013,0 -3.41392,-0.11499 -3.52267,-0.4 z m 49.27982,-4.8 c -0.084,-0.22 -0.11552,-10.264 -0.07,-22.32 l 0.0828,-21.92 3.52,-0.0807 c 1.936,-0.0444 3.68945,0.0296 3.89655,0.16439 0.20711,0.13483 1.25342,4.84148 2.32514,10.45922 1.07173,5.61774 2.01828,10.28377 2.10345,10.36894 0.0852,0.0852 0.21619,0.0935 0.29114,0.0186 0.075,-0.075 1.01383,-4.73623 2.0864,-10.3584 1.08688,-5.69722 2.12435,-10.33531 2.34372,-10.47781 0.21648,-0.14062 1.9776,-0.21934 3.9136,-0.17493 l 3.52,0.0807 v 22.24 22.24 l -2.69259,0.0938 c -1.93812,0.0675 -2.76614,-0.0221 -2.95509,-0.32 -0.14439,-0.22759 -0.2691,-6.67779 -0.27715,-14.33379 -0.008,-7.95723 -0.13275,-13.71439 -0.29038,-13.44 -0.15167,0.264 -1.16249,6.456 -2.24626,13.76 -1.08378,7.304 -2.04501,13.532 -2.13608,13.84 -0.12069,0.40819 -0.50088,0.56 -1.40245,0.56 -0.9008,0 -1.2824,-0.15216 -1.40445,-0.56 -0.0922,-0.308 -1.04273,-6.464 -2.11235,-13.68 -1.06963,-7.216 -2.07418,-13.408 -2.23233,-13.76 -0.1759,-0.3915 -0.29596,4.72365 -0.30921,13.17383 -0.0119,7.5976 -0.10906,14.0416 -0.21589,14.32 -0.15585,0.40613 -0.72702,0.50617 -2.89004,0.50617 -1.86182,0 -2.74309,-0.12375 -2.84862,-0.4 z m 29.44464,0.0121 c -0.0866,-0.22663 -0.12016,-10.27606 -0.0746,-22.33206 l 0.0829,-21.92 2.39623,-0.0956 c 1.31793,-0.0526 2.72291,-0.0136 3.12218,0.0866 l 0.72596,0.18221 -0.0822,22.15335 -0.0822,22.15336 -2.96541,0.0921 c -2.19242,0.0681 -3.00645,-0.0153 -3.12285,-0.32 z m 11.51768,-0.006 c -0.0853,-0.2233 -0.11784,-10.27001 -0.0723,-22.32601 l 0.0828,-21.92 2.39623,-0.0956 c 1.31793,-0.0526 2.72079,-0.0141 3.11748,0.0855 l 0.72126,0.18103 0.0825,19.11453 0.0825,19.11454 4.16,0.16 4.16,0.16 v 2.88 2.88 l -7.28774,0.086 c -5.65656,0.0668 -7.32244,-0.005 -7.44284,-0.32 z m 17.92,0 c -0.0853,-0.2233 -0.11784,-10.27001 -0.0723,-22.32601 l 0.0829,-21.92 2.39623,-0.0956 c 1.31793,-0.0526 2.72079,-0.0141 3.11748,0.0855 l 0.72126,0.18103 0.0825,19.11453 0.0825,19.11454 4.16,0.16 4.16,0.16 v 2.88 2.88 l -7.28774,0.086 c -5.65656,0.0668 -7.32244,-0.005 -7.44284,-0.32 z m 16.68927,0.13658 c -0.32064,-0.5188 6.44611,-43.97811 6.89148,-44.26039 0.56691,-0.3593 6.70363,-0.35234 7.273,0.008 0.31159,0.19733 1.42245,6.76899 3.74169,22.13527 1.81419,12.02004 3.22626,21.97153 3.13795,22.11444 -0.22328,0.36126 -5.80305,0.32777 -6.02799,-0.0362 -0.10062,-0.16281 -0.41481,-2.07081 -0.69821,-4.24 -0.35466,-2.71471 -0.67168,-4.06866 -1.0171,-4.34399 -0.2955,-0.23553 -1.43835,-0.4 -2.77951,-0.4 -1.34117,0 -2.48402,0.16447 -2.77952,0.4 -0.34542,0.27533 -0.66243,1.62928 -1.0171,4.34399 -0.28339,2.16919 -0.59759,4.07719 -0.69821,4.24 -0.22401,0.36245 -5.80424,0.39821 -6.02648,0.0386 z m 12.4843,-16.21926 c 0.21249,-0.55374 -1.42623,-13.22257 -1.79739,-13.89547 -0.19864,-0.36013 -0.28671,-0.32757 -0.43279,0.16 -0.38144,1.27309 -1.86133,13.30412 -1.69107,13.74783 0.25457,0.66339 3.66606,0.65265 3.92125,-0.0124 z m 12.10911,16.08968 c -0.0868,-0.22715 -0.12052,-10.27701 -0.075,-22.33301 l 0.0829,-21.92 2.4,-0.0821 c 1.32,-0.0451 2.59332,0.0436 2.8296,0.19718 0.23628,0.15359 1.78548,5.23052 3.44268,11.28207 3.55241,12.97226 3.63159,13.22695 3.99829,12.86025 0.15483,-0.15483 0.31929,-5.67608 0.36547,-12.26946 l 0.084,-11.98796 h 2.72 2.72 v 22.24 22.24 l -2.62197,0.0926 c -2.25194,0.0796 -2.66416,0.0118 -2.92093,-0.48 -0.16442,-0.31496 -1.47867,-4.89265 -2.92055,-10.17265 -3.46861,-12.70169 -3.86315,-14.02001 -4.11923,-13.76434 -0.11953,0.11934 -0.28932,5.64113 -0.37732,12.27066 l -0.16,12.05368 -2.64505,0.093 c -1.93511,0.068 -2.6874,-0.0178 -2.80285,-0.32 z m -112.75493,-22.8811 c -1.9802,-0.97549 -2.26217,-2.17959 -2.26965,-9.692 -0.006,-5.62229 0.0735,-6.71685 0.55297,-7.65726 0.8742,-1.71442 1.924,-2.30846 4.0795,-2.30846 3.07614,0 4.40494,1.4921 4.45341,5.00071 l 0.0266,1.92501 -1.66979,0.0964 c -1.83731,0.10604 -1.88748,0.046 -2.08383,-2.49374 -0.0924,-1.1953 -1.03544,-1.74678 -1.56313,-0.91411 -0.15039,0.23732 -0.27565,3.18585 -0.27835,6.5523 -0.005,6.39162 0.14936,7.12829 1.39454,6.65047 0.37305,-0.14315 0.52056,-0.60408 0.52056,-1.62656 0,-2.06188 0.42028,-2.66572 1.85126,-2.65983 1.92281,0.008 2.11453,0.27919 1.89077,2.67534 -0.10794,1.15595 -0.42762,2.54913 -0.7104,3.09595 -0.92052,1.7801 -3.97573,2.44881 -6.19445,1.35582 z M 39.491273,211.40867 c -7.08318,-7.0848 -12.87852,-13.09731 -12.87852,-13.36113 0,-0.26381 27.9,-28.36092 62,-62.438 l 61.999997,-61.958351 2.54124,-1.03528 c 3.9402,-1.60521 12.73429,-4.47687 13.07155,-4.26844 0.16631,0.10279 -28.73053,29.22008 -64.2152,64.705081 -35.484667,35.485 -64.517587,64.73287 -64.517587,64.99527 0,0.2624 3.15129,3.64627 7.00288,7.5197 l 7.00287,7.04262 0.55412,4.48 c 0.30477,2.464 0.6282,5.092 0.71874,5.84 0.0905,0.748 0.0372,1.36 -0.11847,1.36 -0.15571,0 -6.07844,-5.79666 -13.16162,-12.88147 z m 303.100717,4.64147 c 0.12522,-1.188 0.35846,-3.312 0.51837,-4.72 0.15993,-1.408 0.38429,-5.8 0.49862,-9.76 0.81367,-28.18424 -7.03651,-55.99725 -22.53472,-79.84001 -10.81047,-16.63101 -24.55049,-30.371031 -41.1815,-41.181491 -5.49955,-3.57481 -8.45118,-5.23881 -15.01318,-8.46381 l -5.46682,-2.68676 -5.98232,-5.97314 c -3.29027,-3.28523 -5.91341,-6.08463 -5.8292,-6.22088 0.0842,-0.13626 2.27225,0.48347 4.86231,1.37717 25.64514,8.8488 48.99711,25.34798 66.2789,46.828911 21.13197,26.26663 32.74356,59.3276 32.64916,92.96001 -0.008,2.904 -0.12596,6.76507 -0.26176,8.58016 l -0.24692,3.30016 -3.9703,3.97984 c -2.18365,2.18891 -4.10032,3.97984 -4.25926,3.97984 -0.16592,0 -0.19207,-0.91981 -0.0614,-2.16 z M 136.20408,187.42067 c -0.0862,-0.22579 -0.11946,-12.07454 -0.074,-26.33054 l 0.0827,-25.92 h 9.12 9.12 l 0.09,3.55249 c 0.0679,2.68126 -0.016,3.6405 -0.34237,3.91136 -0.26699,0.22158 -2.32132,0.39277 -5.37004,0.44751 l -4.93762,0.0886 v 6.72 6.72 l 3.52,0.16 3.52,0.16 v 3.84 3.84 l -3.52,0.16 -3.52,0.16 -0.16,11.36 -0.16,11.36 -3.606,0.0905 c -2.70659,0.068 -3.64507,-0.0119 -3.76267,-0.32 z m 22.40042,-0.95846 c -0.0866,-0.22664 -0.12016,-10.27608 -0.0746,-22.33208 l 0.0828,-21.92 4.48,0.0254 c 6.84713,0.0387 9.46769,1.19405 11.3303,4.99521 1.30983,2.67308 1.7417,5.18923 1.52749,8.89945 -0.21772,3.77085 -0.86105,5.93604 -2.33909,7.87237 l -1.14455,1.49945 1.95293,9.99997 c 1.07411,5.49999 1.95292,10.30333 1.95292,10.6741 0,0.63788 -0.16236,0.67411 -3.02111,0.67411 -1.66161,0 -3.10839,-0.14121 -3.21505,-0.31379 -0.10667,-0.17259 -0.91404,-4.31226 -1.79416,-9.19927 -0.88012,-4.88702 -1.72205,-9.00731 -1.87096,-9.15622 -0.1489,-0.1489 -0.53803,-0.21936 -0.86473,-0.15656 -0.55791,0.10724 -0.6037,0.6776 -0.75399,9.39001 l -0.16,9.27583 -2.9654,0.0921 c -2.19242,0.0681 -3.00645,-0.0153 -3.12285,-0.32 z m 9.34482,-25.58522 c 1.29392,-1.21557 1.79763,-3.13406 1.64747,-6.27478 -0.10502,-2.19665 -0.29312,-3.0836 -0.84246,-3.97243 -0.73571,-1.19041 -2.14806,-1.99759 -3.15626,-1.80385 -0.53881,0.10354 -0.59225,0.59448 -0.67263,6.17849 -0.048,3.3363 -0.01,6.268 0.0849,6.51488 0.2391,0.62307 2.00218,0.23776 2.93896,-0.64231 z m 10.86213,25.71576 c -0.32064,-0.51881 6.4461,-43.97812 6.89148,-44.2604 0.56691,-0.3593 6.70363,-0.35234 7.273,0.008 0.31159,0.19733 1.42245,6.76899 3.74169,22.13527 1.81419,12.02004 3.22626,21.97153 3.13794,22.11444 -0.22327,0.36126 -5.80304,0.32777 -6.02798,-0.0362 -0.10062,-0.16281 -0.41482,-2.07081 -0.69821,-4.24 -0.35467,-2.71471 -0.67168,-4.06866 -1.0171,-4.34399 -0.2955,-0.23553 -1.43835,-0.4 -2.77952,-0.4 -1.34116,0 -2.48401,0.16447 -2.77951,0.4 -0.34542,0.27533 -0.66243,1.62928 -1.0171,4.34399 -0.2834,2.16919 -0.59759,4.07719 -0.69821,4.24 -0.22401,0.36245 -5.80424,0.39821 -6.02648,0.0386 z m 12.4843,-16.21927 c 0.21249,-0.55374 -1.42623,-13.22257 -1.7974,-13.89547 -0.19863,-0.36013 -0.2867,-0.32757 -0.43278,0.16 -0.38145,1.27309 -1.86133,13.30412 -1.69107,13.74783 0.25457,0.6634 3.66606,0.65265 3.92125,-0.0124 z m 12.10911,16.08968 c -0.0868,-0.22717 -0.12052,-10.27703 -0.075,-22.33303 l 0.0828,-21.92 2.40001,-0.0821 c 1.32,-0.0451 2.59331,0.0436 2.8296,0.19718 0.23627,0.15359 1.78548,5.23052 3.44268,11.28207 3.55241,12.97225 3.63159,13.22695 3.99829,12.86025 0.15483,-0.15483 0.31928,-5.67609 0.36546,-12.26946 l 0.084,-11.98797 h 2.72 2.72 v 22.24 22.24 l -2.62198,0.0926 c -2.25194,0.0796 -2.66416,0.0118 -2.92092,-0.48 -0.16443,-0.31495 -1.47868,-4.89265 -2.92055,-10.17265 -3.46862,-12.70168 -3.86315,-14.02001 -4.11923,-13.76433 -0.11953,0.11934 -0.28932,5.64113 -0.37732,12.27065 l -0.16,12.05368 -2.64505,0.093 c -1.93511,0.068 -2.6874,-0.0178 -2.80285,-0.32 z m 23.99964,-9.6e-4 c -0.0866,-0.22663 -0.12016,-10.27607 -0.0746,-22.33207 l 0.0828,-21.92 2.39623,-0.0956 c 1.31793,-0.0526 2.72193,-0.0138 3.12,0.0861 l 0.72377,0.18166 v 7.17502 c 0,6.91393 0.21715,8.52357 0.89746,6.6524 3.21885,-8.85332 4.95027,-13.39976 5.2326,-13.73994 0.47632,-0.57393 5.66477,-0.58972 5.8842,-0.0179 0.0848,0.22098 -1.1427,3.55311 -2.72776,7.40473 l -2.88194,7.00296 3.34842,14.72087 c 1.84163,8.09648 3.2721,14.84436 3.17883,14.99528 -0.23068,0.37324 -5.8071,0.35035 -6.03895,-0.0248 -0.1017,-0.16456 -1.1215,-4.30456 -2.26622,-9.20001 -1.14473,-4.89544 -2.15972,-9.1528 -2.25555,-9.4608 -0.29102,-0.93542 -0.75843,-0.63625 -1.49982,0.96 -0.65316,1.40627 -0.71815,2.13051 -0.86862,9.68 l -0.16265,8.16 -2.96541,0.0921 c -2.19242,0.0681 -3.00645,-0.0153 -3.12285,-0.32 z m 22.72,0 c -0.0866,-0.22663 -0.12016,-10.27607 -0.0746,-22.33207 l 0.0828,-21.92 2.39623,-0.0956 c 1.31793,-0.0526 2.72291,-0.0136 3.12219,0.0866 l 0.72595,0.18221 -0.0822,22.15335 -0.0822,22.15335 -2.96541,0.0921 c -2.19242,0.0681 -3.00645,-0.0153 -3.12285,-0.32 z m 11.44608,-21.93207 0.0822,-22.32 h 7.2 7.2 l 0.0912,3.28 0.0912,3.28 -3.7712,0.005 c -2.07416,0.003 -3.9547,0.12136 -4.17899,0.26371 -0.31058,0.19711 -0.38687,1.58813 -0.32,5.8351 l 0.0878,5.57629 2.88,0.16 2.88,0.16 0.0907,3.43121 c 0.10479,3.96251 0.34779,3.70358 -3.61073,3.84741 l -2.24,0.0814 v 5.92 5.92 l 4.08,0.0896 4.08,0.0896 v 3.35045 3.35043 h -7.36218 -7.36218 z m 6.94341,-68.098771 c -35.45335,-35.45368 -64.678,-64.461231 -64.94366,-64.461231 -0.26567,0 -3.63205,3.151466 -7.48086,7.003255 l -6.99783,7.003254 -1.95944,0.208864 c -1.0777,0.114874 -3.65226,0.442589 -5.72127,0.728259 -2.06899,0.285668 -3.86266,0.418548 -3.98592,0.295287 -0.30413,-0.304128 25.5388,-26.118919 26.14739,-26.118919 0.26544,0 28.36387,27.9 62.44095,62.000001 l 61.95835,62.000001 0.97405,2.4 c 2.15293,5.30456 4.63939,13.02514 4.26864,13.25428 -0.13187,0.0815 -29.24706,-28.85937 -64.7004,-64.313051 z M 62.698523,154.02924 c -0.11245,-0.11246 0.52334,-2.31376 1.41288,-4.89179 8.84065,-25.62162 25.34816,-48.98145 46.821347,-66.257011 26.26663,-21.13197 59.3276,-32.743559 92.96001,-32.649162 2.904,0.0082 6.76661,0.126045 8.58358,0.261991 l 3.30359,0.247171 4.04229,4.042298 c 2.22327,2.223262 3.94338,4.141212 3.82247,4.262122 -0.1209,0.1209 -1.69855,0.0492 -3.50588,-0.1594 -32.91294,-3.798271 -65.35614,3.76823 -92.88606,21.66318 -8.64229,5.61765 -15.39941,11.09622 -22.74234,18.43915 C 93.051273,110.44693 84.638693,122.29873 77.346033,137.25749 l -2.42168,4.96735 -6.01068,6.00444 c -3.30587,3.30243 -6.10269,5.91242 -6.21515,5.79996 z"
     id="path5775" />
  <path
     style="fill:#040404;stroke-width:0.32000002"
     d="m 141.41005,312.68743 -62.002087,-62.0027 -1.43479,-3.63819 c -1.82195,-4.61987 -3.76641,-10.61707 -3.52171,-10.86178 0.10322,-0.10321 29.195717,28.82013 64.650007,64.27409 l 64.46235,64.46175 7.28447,-7.22582 7.28447,-7.22583 4.60897,-0.5472 c 2.53494,-0.30096 5.05494,-0.628 5.6,-0.72678 0.82516,-0.1495 -1.15097,1.96896 -11.80747,12.65782 -7.03918,7.06055 -12.87132,12.83735 -12.96031,12.83735 -0.089,0 -28.06275,-27.90122 -62.1639,-62.00271 z m 53.28326,32.61052 -2.95945,-0.21671 -3.82971,-3.81974 c -2.10634,-2.10083 -3.78551,-3.86391 -3.73149,-3.91792 0.054,-0.054 2.02913,0.14614 4.38915,0.4448 6.19583,0.78409 23.59591,0.78621 30.05095,0.004 26.1819,-3.17402 49.0375,-12.22003 69.28,-27.42037 6.02066,-4.52098 10.5122,-8.49411 16.32378,-14.43966 10.58615,-10.83018 18.70143,-22.33348 25.59593,-36.28189 l 3.00525,-6.08 5.44595,-5.42491 c 2.99526,-2.9837 5.52576,-5.3451 5.6233,-5.24756 0.50537,0.50539 -4.36186,12.81475 -8.01594,20.27247 -10.8225,22.08793 -27.42826,41.45003 -47.85051,55.79309 -20.1682,14.16464 -44.09685,23.04332 -69.58307,25.81868 -4.97564,0.54186 -19.1767,0.85047 -23.74414,0.51604 z m -40.24056,-8.17725 c -15.39528,-5.52157 -29.86148,-13.48848 -42.08,-23.17463 -11.28574,-8.94666 -21.509157,-19.76708 -29.713077,-31.44817 -14.16578,-20.16982 -23.09039,-44.22875 -25.81171,-69.58307 -0.63809,-5.94498 -0.92503,-17.55834 -0.5595,-22.64492 l 0.29464,-4.10023 3.79901,-3.80892 c 2.08945,-2.09492 3.8432,-3.76474 3.89721,-3.71072 0.054,0.054 -0.14615,2.02913 -0.44481,4.38915 -0.78409,6.19583 -0.78622,23.59591 -0.004,30.05095 3.17401,26.1819 12.22003,49.0375 27.42037,69.28 4.52098,6.02066 8.49411,10.5122 14.439657,16.32378 10.8208,10.57698 22.48554,18.80835 36.12189,25.48982 l 5.92,2.90064 5.52,5.47945 c 3.036,3.0137 5.52,5.589 5.52,5.72288 0,0.3673 -0.18072,0.31853 -4.32,-1.16601 z m 87.20001,-10.03027 c 0,-0.13184 28.97785,-29.21782 64.39523,-64.63553 l 64.39523,-64.39583 -7.22582,-7.28447 -7.22583,-7.28447 -0.5472,-4.60897 c -0.30096,-2.53494 -0.62784,-5.05494 -0.72643,-5.6 -0.14921,-0.82515 1.98275,1.16484 12.73741,11.88907 l 12.91661,12.88009 -62.07961,62.08547 -62.07959,62.08548 -4,1.5577 c -3.43251,1.3367 -9.92017,3.55117 -10.40383,3.55117 -0.0859,0 -0.15617,-0.10787 -0.15617,-0.23971 z M 125.38609,259.2768 c -0.11734,-0.11733 -0.21334,-11.85333 -0.21334,-26.08 v -25.86666 h 4.44232 4.44232 l 0.81868,4.24 c 0.45028,2.332 1.5532,8.12676 2.45094,12.87725 0.89774,4.7505 1.76494,8.76995 1.92711,8.93211 0.30713,0.30714 0.95863,-1.02321 0.95863,-1.9575 0,-0.43372 3.17717,-17.45124 4.1843,-22.41186 l 0.34108,-1.68 h 4.45919 4.4592 l -0.0819,26 -0.0819,26 -3.12,0.0916 -3.12,0.0916 v -17.10541 c 0,-9.40798 -0.0874,-17.3332 -0.19423,-17.61159 -0.3325,-0.86648 -1.0484,-0.55607 -1.23114,0.53383 -0.0959,0.572 -1.26507,8.37897 -2.59815,17.34882 -1.33308,8.96986 -2.49364,16.42186 -2.57901,16.56001 -0.21837,0.35331 -2.28085,0.31403 -2.50441,-0.0477 -0.10159,-0.16438 -1.32807,-7.96316 -2.7255,-17.33061 -1.39743,-9.36745 -2.6968,-17.18776 -2.88749,-17.37845 -0.24896,-0.24895 -0.43181,-0.21213 -0.64849,0.13061 -0.17921,0.28346 -0.30377,7.46313 -0.30668,17.67733 l -0.005,17.2 h -2.98666 c -1.64267,0 -3.08267,-0.096 -3.2,-0.21334 z m 49.14446,-26.58666 0.0822,-22 3.2,-0.0811 c 1.76,-0.0446 3.37888,0.0352 3.59751,0.17735 0.22554,0.14663 1.27617,4.88833 2.42868,10.96108 1.52542,8.03778 2.14355,10.70266 2.48249,10.70266 0.24823,0 0.50155,-0.36 0.56292,-0.8 0.5804,-4.16057 3.96802,-20.65421 4.28437,-20.85971 0.22222,-0.14435 1.84403,-0.22597 3.60403,-0.18138 l 3.2,0.0811 0.0822,22.01297 0.0822,22.01298 -2.64221,-0.093 -2.64221,-0.093 -0.0833,-14.54731 c -0.0768,-13.40336 -0.25402,-16.31076 -0.89293,-14.64577 -0.10847,0.28267 -1.16136,6.96675 -2.33975,14.85351 l -2.14252,14.33957 h -1.11073 -1.11075 l -2.14021,-14.35767 c -1.17712,-7.89671 -2.23141,-14.59272 -2.34286,-14.88 -0.18025,-0.46463 -0.25314,-0.45371 -0.65978,0.0988 -0.38015,0.51654 -0.45715,3.03617 -0.45715,14.96 v 14.33884 h -2.5622 -2.56221 z m 29.44,0 0.0822,-22 h 2.72 2.72 l 0.0822,22 0.0822,22 h -2.8844 -2.88441 z m 11.52,0 0.0822,-22 h 2.72 2.72 l 0.16,19.2 0.16,19.2 4.24,0.0893 4.24,0.0893 v 2.71072 2.71071 h -7.20221 -7.2022 z m 17.92,0 0.0822,-22 h 2.72 2.72 l 0.16,19.2 0.16,19.2 4.24,0.0893 4.24,0.0893 v 2.71072 2.71071 h -7.20221 -7.2022 z m 16.79181,21.76 c -0.17515,-0.32799 6.31185,-43.05223 6.61007,-43.53475 0.33644,-0.54437 6.79035,-0.53445 7.12743,0.011 0.30596,0.49504 6.78802,43.19493 6.60714,43.52378 -0.19111,0.34744 -5.14205,0.2957 -5.35942,-0.056 -0.10062,-0.16281 -0.4187,-2.04611 -0.70685,-4.18511 -0.30991,-2.30059 -0.7097,-4.07489 -0.97879,-4.34399 -0.63355,-0.63354 -5.62082,-0.63754 -6.25334,-0.005 -0.26354,0.26354 -0.66444,2.05549 -0.96789,4.32632 -0.2849,2.13205 -0.60524,4.0176 -0.71186,4.19013 -0.22487,0.36385 -5.17524,0.43181 -5.36649,0.0737 z m 12.47253,-15.64654 c 0.18018,-0.46954 -1.30725,-13.19635 -1.70559,-14.59346 -0.0878,-0.308 -0.35627,-0.56 -0.59654,-0.56 -0.24028,0 -0.50873,0.252 -0.59654,0.56 -0.39835,1.39711 -1.88578,14.12392 -1.7056,14.59346 0.15913,0.4147 0.6481,0.52654 2.30214,0.52654 1.65403,0 2.143,-0.11184 2.30213,-0.52654 z m 12.01566,-6.11346 0.0822,-22 2.27002,-0.093 c 1.57163,-0.0644 2.36692,0.0341 2.58499,0.32 0.17323,0.22716 1.78844,5.81302 3.58935,12.41302 1.80092,6.6 3.40727,12.1344 3.56968,12.29866 0.16241,0.16427 0.40569,0.18842 0.54062,0.0537 0.13494,-0.13475 0.31734,-5.81315 0.40534,-12.61867 l 0.16,-12.37366 h 2.4 2.4 l 0.0822,22 0.0822,22 h -2.54716 -2.54717 l -0.33231,-1.2 c -0.18276,-0.66 -1.72687,-6.28168 -3.43134,-12.49262 -4.13438,-15.0653 -4.07952,-15.08229 -4.19019,1.29693 l -0.0838,12.39569 h -2.55845 -2.55844 z m -112.7178,-1.26118 c -2.00811,-1.0378 -2.23894,-1.97908 -2.2395,-9.13235 -6.4e-4,-7.08158 0.29927,-8.52862 1.94328,-9.37877 1.04356,-0.53965 3.8905,-0.62173 4.79395,-0.13822 0.96164,0.51466 1.61535,2.10538 1.68161,4.09203 l 0.0607,1.81849 -1.31351,0.0961 -1.31352,0.0961 -0.19231,-1.62375 c -0.23562,-1.98941 -0.3849,-2.2485 -1.29554,-2.2485 -1.39781,0 -1.48512,0.41629 -1.48512,7.08114 0,5.31255 0.0797,6.39284 0.50286,6.816 1.13879,1.13879 2.03191,0.32237 2.33137,-2.13117 l 0.20577,-1.68597 h 1.27562 c 1.49359,0 1.62155,0.29225 1.28994,2.94631 -0.30283,2.42384 -1.37029,3.57515 -3.52556,3.80253 -1.17529,0.12399 -1.89729,0.0151 -2.72,-0.41002 z m -122.413177,-20.59201 -12.78501,-12.78801 62.0791,-62.08496 62.079087,-62.084971 4,-1.55771 c 4.92273,-1.91706 10.25917,-3.63867 10.50784,-3.39 0.10186,0.10186 -28.82259,29.19326 -64.27655,64.647551 l -64.461757,64.46235 7.23948,7.28447 7.23947,7.28447 0.21869,2.24 c 0.12028,1.232 0.42763,3.66474 0.683,5.40609 0.25537,1.74135 0.41872,3.21169 0.36299,3.26742 -0.0557,0.0557 -5.85458,-5.65329 -12.88634,-12.6867 z m 303.321537,5.61319 c 1.20666,-8.55975 1.42125,-25.22458 0.43059,-33.44001 -3.15072,-26.12859 -12.21664,-49.03697 -27.41739,-69.28 -4.52098,-6.02066 -8.49411,-10.5122 -14.43966,-16.323781 -10.83018,-10.58616 -22.33348,-18.70143 -36.28189,-25.59592 l -6.08,-3.00526 -5.42491,-5.44594 c -2.9837,-2.99527 -5.3451,-5.52576 -5.24756,-5.6233 0.0975,-0.0975 1.67475,0.34226 3.50491,0.97733 29.16983,10.12207 54.66435,29.40762 72.56065,54.889111 14.16576,20.16982 23.0904,44.22875 25.81171,69.58307 0.63824,5.94651 0.92499,17.55873 0.55926,22.64848 l -0.29488,4.10378 -3.93065,3.89622 -3.93063,3.89622 z M 136.58609,187.2768 c -0.11734,-0.11733 -0.21334,-11.85561 -0.21334,-26.08506 v -25.87173 l 8.88,0.0851 8.88,0.0851 0.0908,3.44 0.0908,3.44 h -4.83186 c -2.71877,0 -5.10255,0.14487 -5.45082,0.33126 -0.58156,0.31124 -0.61897,0.73433 -0.61897,7.00082 0,5.09782 0.0985,6.7513 0.41793,7.0164 0.22986,0.19077 1.84986,0.3884 3.6,0.43919 l 3.18212,0.0923 v 3.52 3.52 l -3.3485,0.092 c -2.18456,0.06 -3.43422,0.22683 -3.5951,0.48 -0.13563,0.21342 -0.2488,5.39204 -0.2515,11.50804 l -0.005,11.12 h -3.30666 c -1.81867,0 -3.40267,-0.096 -3.52,-0.21333 z m 22.26446,-22.74667 0.0822,-22 4.24077,0.0575 c 2.72271,0.0369 4.85185,0.23516 5.94789,0.55379 2.19348,0.63766 4.38947,2.55018 5.26496,4.58531 2.12519,4.94014 1.56953,12.93209 -1.11738,16.07115 -0.58093,0.67868 -1.05624,1.43922 -1.05624,1.69007 0,0.25086 0.86288,4.90797 1.9175,10.34914 1.05462,5.44116 1.91862,10.07302 1.92,10.29302 0.003,0.50052 -5.2953,0.56897 -5.60221,0.0724 -0.11136,-0.18019 -0.90733,-4.22798 -1.76882,-8.99508 -0.86148,-4.7671 -1.73854,-8.87495 -1.94901,-9.12856 -0.21047,-0.2536 -0.755,-0.41781 -1.21006,-0.36491 l -0.8274,0.0962 -0.0848,9.36 -0.0848,9.36 h -2.87738 -2.87737 z m 8.4288,-2.83406 c 1.75396,-0.83231 2.48105,-2.36467 2.63244,-5.54793 0.15406,-3.23953 -0.27974,-5.11294 -1.50022,-6.47889 -0.72822,-0.81503 -1.14657,-1.00157 -2.30429,-1.02747 l -1.41453,-0.0316 -0.087,6.39098 c -0.0479,3.51503 -0.0164,6.57503 0.07,6.8 0.21397,0.5576 1.2995,0.51381 2.60364,-0.10504 z m 11.88301,24.59406 c -0.17515,-0.32798 6.31185,-43.05222 6.61006,-43.53474 0.33645,-0.54438 6.79036,-0.53445 7.12744,0.011 0.30595,0.49505 6.78802,43.19494 6.60713,43.52379 -0.19111,0.34744 -5.14204,0.2957 -5.35941,-0.056 -0.10062,-0.1628 -0.4187,-2.0461 -0.70685,-4.1851 -0.30991,-2.30059 -0.7097,-4.0749 -0.97879,-4.34399 -0.63355,-0.63354 -5.62082,-0.63755 -6.25335,-0.005 -0.26353,0.26354 -0.66443,2.05548 -0.96788,4.32632 -0.2849,2.13204 -0.60524,4.0176 -0.71186,4.19012 -0.22487,0.36385 -5.17524,0.43182 -5.36649,0.0737 z m 12.47253,-15.64653 c 0.18018,-0.46955 -1.30725,-13.19636 -1.70559,-14.59347 -0.0878,-0.308 -0.35627,-0.56 -0.59655,-0.56 -0.24027,0 -0.50872,0.252 -0.59654,0.56 -0.39834,1.39711 -1.88577,14.12392 -1.70559,14.59347 0.15913,0.4147 0.6481,0.52653 2.30213,0.52653 1.65404,0 2.14301,-0.11183 2.30214,-0.52653 z m 12.01566,-6.11347 0.0822,-22 2.27001,-0.093 c 1.57164,-0.0644 2.36693,0.0341 2.585,0.32 0.17323,0.22716 1.78844,5.81301 3.58935,12.41301 1.80092,6.6 3.40727,12.1344 3.56968,12.29867 0.16241,0.16427 0.40569,0.18842 0.54062,0.0537 0.13494,-0.13475 0.31734,-5.81316 0.40534,-12.61867 l 0.16,-12.37367 h 2.4 2.4 l 0.0822,22 0.0822,22 h -2.54717 -2.54716 l -0.33231,-1.2 c -0.18277,-0.66 -1.72687,-6.28168 -3.43134,-12.49262 -4.13438,-15.0653 -4.07952,-15.08228 -4.19019,1.29694 l -0.0838,12.39568 h -2.55845 -2.55844 z m 24,0 0.0822,-22 h 2.72 2.72 l 0.16,7.52 c 0.13223,6.21507 0.23901,7.52 0.61533,7.52 0.30196,0 1.36873,-2.47893 3.16723,-7.36 1.49154,-4.048 2.87064,-7.46579 3.06466,-7.5951 0.46103,-0.30724 4.40307,-0.30488 4.88694,0.003 0.26363,0.16771 -0.47296,2.30759 -2.49343,7.24373 l -2.8676,7.00572 3.2334,14.27137 c 1.77837,7.84925 3.26041,14.48737 3.29343,14.75137 0.0483,0.38635 -0.45522,0.49813 -2.58092,0.57295 -2.49246,0.0877 -2.65814,0.0517 -2.9466,-0.64 -0.26176,-0.62767 -4.49244,-18.48537 -4.49244,-18.96253 0,-0.0937 -0.22503,-0.17039 -0.50007,-0.17039 -0.30524,0 -0.86629,0.80767 -1.44,2.07298 l -0.93993,2.07297 v 7.84703 7.84702 h -2.88221 -2.8822 z m 22.72,0 0.0822,-22 h 2.72 2.72 l 0.0822,22 0.0822,22 h -2.88441 -2.88441 z m 11.52,0 0.0822,-22 h 6.88 6.88 l 0.092,2.96 0.092,2.96 h -3.81282 c -2.85258,0 -3.90519,0.11129 -4.17955,0.44188 -0.25308,0.30494 -0.3396,2.21386 -0.27918,6.16 l 0.0875,5.71812 2.97106,0.0922 2.97106,0.0922 -0.0911,3.26785 -0.0911,3.26784 -2.88,0.16 -2.88,0.16 v 6.24 6.24 l 4.08,0.0896 4.08,0.0896 v 3.03045 3.03043 h -7.04221 -7.0422 z m 6.08667,-68.955331 -64.39533,-64.39534 -7.28457,7.22592 -7.28457,7.225917 -4.60897,0.547213 c -2.53494,0.300966 -5.05494,0.627856 -5.6,0.726426 -0.82515,0.149219 1.16484,-1.982756 11.88907,-12.737393 l 12.88009,-12.916608 62.08547,62.079595 62.08548,62.079601 1.5577,4 c 1.3367,3.43251 3.55117,9.92017 3.55117,10.40383 0,0.0859 -0.10803,0.15617 -0.2401,0.15617 -0.13206,0 -29.218,-28.9779 -64.63544,-64.395331 z M 63.092753,153.1211 c 0,-0.071 0.51701,-1.61896 1.14891,-3.44 8.23638,-23.73602 22.97204,-45.68584 41.731087,-62.161471 20.9143,-18.36852 46.485,-30.54627 73.29531,-34.906035 10.55123,-1.715792 23.5245,-2.462918 32.08492,-1.84776 l 4.10023,0.294646 3.80892,3.799002 c 2.09492,2.089457 3.76474,3.843197 3.71072,3.897217 -0.054,0.054 -2.02913,-0.14615 -4.38915,-0.44481 -6.19583,-0.78409 -23.59591,-0.78622 -30.05095,-0.004 -26.1819,3.174 -49.0375,12.22003 -69.28,27.42036 -6.02066,4.52099 -10.5122,8.49412 -16.32378,14.439671 -10.576977,10.8208 -18.808327,22.48554 -25.489797,36.12189 l -2.90066,5.92 -5.47945,5.52 c -4.8324,4.86817 -5.96631,5.89273 -5.96631,5.39097 z"
     id="path5773" />
</svg>
